<svg width="135" height="50" viewBox="0 0 135 50"
  xmlns="http://www.w3.org/2000/svg"
  xmlns:xlink="http://www.w3.org/1999/xlink">
<polyline points="0.0, 47.78158915823514 0.7941176470588235, 47.79412261553364 1.588235294117647, 47.44965048526163 2.3823529411764706, 47.010393445586395 3.176470588235294, 46.55768251684421 3.9705882352941178, 45.37916400367074 4.764705882352941, 45.40125141735692 5.5588235294117645, 45.70277386861031 6.352941176470588, 45.68972430352859 7.147058823529411, 45.5791552789111 7.9411764705882355, 45.60544414002167 8.73529411764706, 45.89276273800829 9.529411764705882, 45.61660084267215 10.323529411764707, 45.62415684041178 11.117647058823529, 46.2092008572576 11.911764705882353, 45.61486122544737 12.705882352941176, 44.618375296123034 13.5, 44.901963516003704 14.294117647058822, 44.6922421789672 15.088235294117649, 45.206342993995754 15.882352941176471, 44.73242633801656 16.676470588235293, 44.73242633801656 17.47058823529412, 44.271697157677366 18.26470588235294, 45.1662821552283 19.058823529411764, 44.87865802467723 19.85294117647059, 44.32450817100849 20.647058823529413, 44.72765126663143 21.441176470588236, 44.473249799873756 22.235294117647058, 45.02227233257077 23.029411764705884, 44.669176311792675 23.823529411764707, 44.371030974861256 24.61764705882353, 44.480783491176005 25.41176470588235, 45.0323848978657 26.205882352941178, 45.02694333820296 27.0, 44.55558896779681 27.794117647058822, 44.47607782364757 28.588235294117645, 44.41475435598805 29.38235294117647, 44.52195072929664 30.176470588235297, 44.860069644024286 30.970588235294116, 44.93758145694942 31.764705882352942, 44.28180184993082 32.55882352941177, 44.468439143042296 33.35294117647059, 44.93731189014552 34.14705882352941, 45.18678677266503 34.94117647058824, 45.32970130429971 35.73529411764706, 45.425979371239585 36.52941176470588, 45.54036789624156 37.32352941176471, 45.29070282472763 38.11764705882353, 45.03086471457919 38.91176470588235, 45.02357352732296 39.70588235294118, 44.39798204520833 40.5, 44.939459786594696 41.294117647058826, 47.724247747091106 42.088235294117645, 47.34939680056968 42.88235294117647, 47.40999384613365 43.6764705882353, 47.50121520873318 44.470588235294116, 47.35119006109139 45.264705882352935, 46.87384844313269 46.05882352941177, 47.038606841796565 46.85294117647059, 48.76745318814774 47.64705882352941, 48.15785600876807 48.44117647058824, 48.52014632381739 49.23529411764706, 48.252075019155086 50.029411764705884, 48.53407202820395 50.8235294117647, 48.64689976618401 51.61764705882353, 48.865864725369214 52.411764705882355, 48.716270200399336 53.205882352941174, 48.28420776912889 54.0, 48.3707034779175 54.794117647058826, 48.21242360906417 55.588235294117645, 48.31212462345632 56.38235294117647, 48.81294884466742 57.17647058823529, 49.488514242068455 57.970588235294116, 48.917582487072636 58.76470588235294, 48.869956542411494 59.55882352941176, 48.79715160199014 60.352941176470594, 48.67443458210131 61.14705882352941, 48.2734211682974 61.94117647058823, 48.660278518317455 62.73529411764706, 48.814629369014526 63.529411764705884, 49.053754788701546 64.3235294117647, 49.863417478326525 65.11764705882354, 50.0 65.91176470588235, 48.60630423610671 66.70588235294117, 48.77302411859924 67.5, 48.34386553421549 68.29411764705883, 48.47410896502867 69.08823529411764, 48.72759007876126 69.88235294117648, 48.3289866038552 70.6764705882353, 48.62134552335133 71.47058823529412, 48.52377602993524 72.26470588235294, 47.770523041539256 73.05882352941175, 47.24494109715104 73.8529411764706, 47.5019488626444 74.64705882352942, 47.23249961916337 75.44117647058823, 46.53336371897912 76.23529411764706, 46.668159705479894 77.02941176470588, 46.77913344159938 77.8235294117647, 46.824167310429274 78.61764705882354, 47.861866961981846 79.41176470588236, 46.90578098576017 80.20588235294117, 45.500128874298525 81.0, 43.724949248656095 81.79411764705881, 43.976991899100284 82.58823529411765, 44.52267517648777 83.38235294117648, 43.68535647867603 84.17647058823529, 43.995994671921466 84.97058823529412, 43.92488558156987 85.76470588235294, 43.82075655326411 86.55882352941177, 42.84307457056171 87.3529411764706, 41.43277323828503 88.14705882352942, 41.954784130467964 88.94117647058823, 41.37391325259669 89.73529411764706, 40.90258183402611 90.52941176470587, 39.791895114218576 91.32352941176471, 38.5534467533443 92.11764705882354, 37.97255454132518 92.91176470588235, 40.34443623629947 93.70588235294117, 39.431883293995114 94.5, 38.81502947134784 95.29411764705883, 38.40627275456921 96.08823529411765, 38.59737798162005 96.88235294117648, 38.67787364694191 97.67647058823529, 38.91442021445472 98.47058823529412, 38.93246946272447 99.26470588235294, 38.979438972082754 100.05882352941177, 41.72986618843403 100.8529411764706, 40.742683010801535 101.6470588235294, 41.16980050900198 102.44117647058823, 41.43845095085711 103.23529411764706, 41.079563117426574 104.02941176470588, 41.03752479988078 104.82352941176471, 40.82658674785417 105.61764705882352, 41.68809581979724 106.41176470588235, 40.86509888287431 107.20588235294117, 40.219619672470984 108.0, 40.7740384328381 108.79411764705883, 40.625650266944 109.58823529411765, 41.274417843342945 110.38235294117646, 41.09354000786494 111.17647058823529, 41.73932167088352 111.97058823529413, 41.138693589241015 112.76470588235294, 41.26487196211492 113.55882352941177, 40.69064414825508 114.35294117647058, 41.15223768547995 115.1470588235294, 41.06450131446277 115.94117647058823, 41.254461366049284 116.73529411764706, 41.020554653979346 117.52941176470588, 41.5708466923918 118.32352941176471, 41.28250823203691 119.11764705882352, 40.45315333708508 119.91176470588235, 39.42439911392824 120.70588235294119, 39.09946782973322 121.5, 28.52648449983604 122.29411764705883, 25.52856923275485 123.08823529411764, 22.04230208956364 123.88235294117646, 24.403681405327767 124.6764705882353, 21.632442699476798 125.47058823529412, 22.237653913232407 126.26470588235294, 18.007255579585237 127.05882352941177, 18.248837552050603 127.85294117647058, 18.05602995914703 128.6470588235294, 21.57886043605147 129.44117647058823, 22.033633442153373 130.23529411764707, 22.421212954663446 131.02941176470588, 21.65019275093941 131.8235294117647, 22.638568233337907 132.61764705882354, 23.58550751478859 133.41176470588235, 22.22325029060704 134.2058823529412, 0.0" fill="none" stroke="#57bd0f" stroke-width="1.25"/>
</svg>
